<svg id="visual" viewBox="0 0 900 100" width="100%" height="100%" xmlns="http://www.w3.org/2000/svg" xmlns:xlink="http://www.w3.org/1999/xlink" version="1.1"><path d="M0 22L12.5 26.7C25 31.3 50 40.7 75 42.7C100 44.7 125 39.3 150 36.2C175 33 200 32 225 34.3C250 36.7 275 42.3 300 43.2C325 44 350 40 375 40.3C400 40.7 425 45.3 450 43.7C475 42 500 34 525 34.8C550 35.7 575 45.3 600 43.7C625 42 650 29 675 26C700 23 725 30 750 33.3C775 36.7 800 36.3 825 33C850 29.7 875 23.3 887.5 20.2L900 17L900 101L887.5 101C875 101 850 101 825 101C800 101 775 101 750 101C725 101 700 101 675 101C650 101 625 101 600 101C575 101 550 101 525 101C500 101 475 101 450 101C425 101 400 101 375 101C350 101 325 101 300 101C275 101 250 101 225 101C200 101 175 101 150 101C125 101 100 101 75 101C50 101 25 101 12.5 101L0 101Z" fill="#83aeea"></path><path d="M0 39L12.5 38.8C25 38.7 50 38.3 75 40C100 41.7 125 45.3 150 45.5C175 45.7 200 42.3 225 44.5C250 46.7 275 54.3 300 58.3C325 62.3 350 62.7 375 61.3C400 60 425 57 450 55.7C475 54.3 500 54.7 525 52.5C550 50.3 575 45.7 600 43.7C625 41.7 650 42.3 675 43.7C700 45 725 47 750 47.7C775 48.3 800 47.7 825 50.3C850 53 875 59 887.5 62L900 65L900 101L887.5 101C875 101 850 101 825 101C800 101 775 101 750 101C725 101 700 101 675 101C650 101 625 101 600 101C575 101 550 101 525 101C500 101 475 101 450 101C425 101 400 101 375 101C350 101 325 101 300 101C275 101 250 101 225 101C200 101 175 101 150 101C125 101 100 101 75 101C50 101 25 101 12.5 101L0 101Z" fill="#5b98f5"></path><path d="M0 53L12.5 53.3C25 53.7 50 54.3 75 54.8C100 55.3 125 55.7 150 58.5C175 61.3 200 66.7 225 70.3C250 74 275 76 300 74.5C325 73 350 68 375 64.5C400 61 425 59 450 57.5C475 56 500 55 525 54.5C550 54 575 54 600 54.3C625 54.7 650 55.3 675 58.2C700 61 725 66 750 69.3C775 72.7 800 74.3 825 71C850 67.7 875 59.3 887.5 55.2L900 51L900 101L887.5 101C875 101 850 101 825 101C800 101 775 101 750 101C725 101 700 101 675 101C650 101 625 101 600 101C575 101 550 101 525 101C500 101 475 101 450 101C425 101 400 101 375 101C350 101 325 101 300 101C275 101 250 101 225 101C200 101 175 101 150 101C125 101 100 101 75 101C50 101 25 101 12.5 101L0 101Z" fill="#3281fc"></path><path d="M0 83L12.5 83.7C25 84.3 50 85.7 75 83.8C100 82 125 77 150 77C175 77 200 82 225 83.8C250 85.7 275 84.3 300 83.7C325 83 350 83 375 83.2C400 83.3 425 83.7 450 81.2C475 78.7 500 73.3 525 74.3C550 75.3 575 82.7 600 83.7C625 84.7 650 79.3 675 75.8C700 72.3 725 70.7 750 69.7C775 68.7 800 68.3 825 71.7C850 75 875 82 887.5 85.5L900 89L900 101L887.5 101C875 101 850 101 825 101C800 101 775 101 750 101C725 101 700 101 675 101C650 101 625 101 600 101C575 101 550 101 525 101C500 101 475 101 450 101C425 101 400 101 375 101C350 101 325 101 300 101C275 101 250 101 225 101C200 101 175 101 150 101C125 101 100 101 75 101C50 101 25 101 12.5 101L0 101Z" fill="#0068ff"></path></svg>