<?xml version="1.0" encoding="utf-8"?>
<!-- Generator: Adobe Illustrator 24.1.2, SVG Export Plug-In . SVG Version: 6.00 Build 0)  -->
<svg version="1.1" id="Layer_1" xmlns="http://www.w3.org/2000/svg" xmlns:xlink="http://www.w3.org/1999/xlink" x="0px" y="0px"
	 viewBox="0 0 592.13 90.39" style="enable-background:new 0 0 592.13 90.39;" xml:space="preserve">
<style type="text/css">
	.st0{fill:#EBF3FF;}
</style>
<g>
	<g>
		<g>
			<g>
				<g>
					<g>
						<path class="st0" d="M85.76,33.94c0,15.07-10.47,26.79-30.98,26.79H40.34v22.29H23.8V6.52h31.08
							C74.14,6.52,85.76,18.77,85.76,33.94z M69.12,33.94c0-6.49-4.71-13.08-13.6-13.08H40.34V46.4h16.85
							C65.45,46.4,69.12,40.22,69.12,33.94z"/>
					</g>
					<g>
						<path class="st0" d="M97.47,83.02V6.52h16.53v76.5H97.47z"/>
					</g>
					<g>
						<path class="st0" d="M148.42,37.71h36.52v14.34h-36.52v30.98h-16.64V6.52h57.98v14.34h-41.34V37.71z"/>
					</g>
					<g>
						<path class="st0" d="M222.81,37.71h36.52v14.34h-36.52v30.98h-16.64V6.52h57.98v14.34h-41.34V37.71z"/>
					</g>
				</g>
				<g>
					<path class="st0" d="M280.47,83.02V6.52h15.86c11.44,0,19.74,0.92,24.91,2.76c7.42,2.6,13.22,7.11,17.4,13.52
						c4.18,6.41,6.27,14.06,6.27,22.93c0,7.66-1.66,14.41-4.97,20.23c-3.31,5.82-7.61,10.12-12.9,12.9
						c-5.29,2.77-12.7,4.16-22.23,4.16H280.47z M287.8,75.8h8.84c10.57,0,17.91-0.66,22-1.97c5.75-1.87,10.28-5.24,13.57-10.11
						c3.29-4.87,4.94-10.82,4.94-17.85c0-7.38-1.79-13.68-5.36-18.91c-3.57-5.23-8.55-8.82-14.93-10.76
						c-4.78-1.45-12.67-2.18-23.66-2.18h-5.41V75.8z"/>
					<path class="st0" d="M359.77,6.52h43.84v7.49h-36.2v23.97h35.88v7.49h-35.88v30.06h35.88v7.49h-43.53V6.52z"/>
					<path class="st0" d="M451.07,6.52l35.68,76.5h-8.26l-12.03-25.17H433.5l-11.92,25.17h-8.53l36.14-76.5H451.07z M450.1,22.78
						l-13.11,27.69h26.15L450.1,22.78z"/>
					<path class="st0" d="M497.11,6.52h7.64v69.11h29.43v7.38h-37.08V6.52z"/>
					<path class="st0" d="M542.13,68.77l6.5-3.9c4.58,8.42,9.86,12.64,15.86,12.64c2.56,0,4.97-0.6,7.23-1.79
						c2.25-1.2,3.97-2.8,5.15-4.81c1.18-2.01,1.77-4.14,1.77-6.4c0-2.57-0.87-5.08-2.6-7.54c-2.39-3.4-6.76-7.49-13.1-12.27
						c-6.38-4.82-10.35-8.3-11.91-10.45c-2.7-3.61-4.06-7.51-4.06-11.7c0-3.33,0.8-6.36,2.39-9.1c1.59-2.74,3.84-4.9,6.73-6.47
						c2.89-1.58,6.04-2.37,9.44-2.37c3.61,0,6.98,0.89,10.12,2.68c3.14,1.79,6.46,5.07,9.96,9.86l-6.24,4.73
						c-2.88-3.81-5.33-6.33-7.36-7.54c-2.03-1.21-4.24-1.82-6.63-1.82c-3.09,0-5.61,0.94-7.57,2.81c-1.96,1.87-2.94,4.18-2.94,6.92
						c0,1.66,0.35,3.28,1.04,4.84c0.69,1.56,1.96,3.26,3.8,5.1c1.01,0.97,4.3,3.52,9.88,7.64c6.62,4.89,11.16,9.24,13.63,13.05
						c2.46,3.81,3.69,7.64,3.69,11.49c0,5.55-2.11,10.37-6.32,14.46c-4.21,4.09-9.33,6.14-15.37,6.14c-4.65,0-8.86-1.24-12.64-3.72
						C548.81,78.75,545.32,74.6,542.13,68.77z"/>
				</g>
			</g>
		</g>
		<g>
			<rect x="5.67" y="46.4" class="st0" width="34.67" height="14.34"/>
		</g>
		<g>
			<rect x="5.67" y="6.52" class="st0" width="34.67" height="14.34"/>
		</g>
	</g>
</g>
<g>
</g>
<g>
</g>
<g>
</g>
<g>
</g>
<g>
</g>
<g>
</g>
<g>
</g>
<g>
</g>
<g>
</g>
<g>
</g>
<g>
</g>
<g>
</g>
<g>
</g>
<g>
</g>
<g>
</g>
</svg>
