<?xml version="1.0" encoding="utf-8"?>
<!-- Generator: Adobe Illustrator 24.1.2, SVG Export Plug-In . SVG Version: 6.00 Build 0)  -->
<svg version="1.1" id="Layer_1" xmlns="http://www.w3.org/2000/svg" xmlns:xlink="http://www.w3.org/1999/xlink" x="0px" y="0px"
	 viewBox="0 0 592.13 90.39" style="enable-background:new 0 0 592.13 90.39;" xml:space="preserve">
<style type="text/css">
	.st0{fill:#0068FF;}
</style>
<g>
	<g>
		<g>
			<g>
				<g>
					<g>
						<path class="st0" d="M85.32,34.24c0,15.07-10.47,26.79-30.98,26.79H39.9v22.29H23.37V6.83h31.08
							C73.7,6.83,85.32,19.07,85.32,34.24z M68.68,34.24c0-6.49-4.71-13.08-13.6-13.08H39.9V46.7h16.85
							C65.02,46.7,68.68,40.52,68.68,34.24z"/>
					</g>
					<g>
						<path class="st0" d="M97.04,83.32V6.83h16.53v76.5H97.04z"/>
					</g>
					<g>
						<path class="st0" d="M147.99,38.01h36.52v14.34h-36.52v30.98h-16.64V6.83h57.98v14.34h-41.34V38.01z"/>
					</g>
					<g>
						<path class="st0" d="M222.37,38.01h36.52v14.34h-36.52v30.98h-16.64V6.83h57.98v14.34h-41.34V38.01z"/>
					</g>
				</g>
				<g>
					<path class="st0" d="M280.03,83.32V6.83h15.86c11.44,0,19.74,0.92,24.91,2.76c7.42,2.6,13.22,7.11,17.4,13.52
						c4.18,6.41,6.27,14.06,6.27,22.93c0,7.66-1.66,14.41-4.97,20.23c-3.31,5.82-7.61,10.12-12.9,12.9
						c-5.29,2.77-12.7,4.16-22.23,4.16H280.03z M287.36,76.1h8.84c10.57,0,17.91-0.66,22-1.97c5.75-1.87,10.28-5.24,13.57-10.11
						c3.29-4.87,4.94-10.82,4.94-17.85c0-7.38-1.79-13.68-5.36-18.91c-3.57-5.23-8.55-8.82-14.93-10.76
						c-4.78-1.45-12.67-2.18-23.66-2.18h-5.41V76.1z"/>
					<path class="st0" d="M359.34,6.83h43.84v7.49h-36.2v23.97h35.88v7.49h-35.88v30.06h35.88v7.49h-43.53V6.83z"/>
					<path class="st0" d="M450.63,6.83l35.68,76.5h-8.26l-12.03-25.17h-32.96l-11.92,25.17h-8.53l36.14-76.5H450.63z M449.67,23.08
						l-13.11,27.69h26.15L449.67,23.08z"/>
					<path class="st0" d="M496.67,6.83h7.64v69.11h29.43v7.38h-37.08V6.83z"/>
					<path class="st0" d="M541.7,69.08l6.5-3.9c4.58,8.42,9.86,12.64,15.86,12.64c2.56,0,4.97-0.6,7.23-1.79
						c2.25-1.2,3.97-2.8,5.15-4.81c1.18-2.01,1.77-4.14,1.77-6.4c0-2.57-0.87-5.08-2.6-7.54c-2.39-3.4-6.76-7.49-13.1-12.27
						c-6.38-4.82-10.35-8.3-11.91-10.45c-2.7-3.61-4.06-7.51-4.06-11.7c0-3.33,0.8-6.36,2.39-9.1c1.59-2.74,3.84-4.9,6.73-6.47
						c2.89-1.58,6.04-2.37,9.44-2.37c3.61,0,6.98,0.89,10.12,2.68c3.14,1.79,6.46,5.07,9.96,9.86l-6.24,4.73
						c-2.88-3.81-5.33-6.33-7.36-7.54c-2.03-1.21-4.24-1.82-6.63-1.82c-3.09,0-5.61,0.94-7.57,2.81c-1.96,1.87-2.94,4.18-2.94,6.92
						c0,1.66,0.35,3.28,1.04,4.84c0.69,1.56,1.96,3.26,3.8,5.1c1.01,0.97,4.3,3.52,9.88,7.64c6.62,4.89,11.16,9.24,13.63,13.05
						c2.46,3.81,3.69,7.64,3.69,11.49c0,5.55-2.11,10.37-6.32,14.46c-4.21,4.09-9.33,6.14-15.37,6.14c-4.65,0-8.86-1.24-12.64-3.72
						C548.37,79.05,544.89,74.9,541.7,69.08z"/>
				</g>
			</g>
		</g>
		<g>
			<rect x="5.23" y="46.7" class="st0" width="34.67" height="14.34"/>
		</g>
		<g>
			<rect x="5.23" y="6.83" class="st0" width="34.67" height="14.34"/>
		</g>
	</g>
</g>
<g>
</g>
<g>
</g>
<g>
</g>
<g>
</g>
<g>
</g>
<g>
</g>
<g>
</g>
<g>
</g>
<g>
</g>
<g>
</g>
<g>
</g>
<g>
</g>
<g>
</g>
<g>
</g>
<g>
</g>
</svg>
