<?xml version="1.0" encoding="utf-8"?>
<!-- Generator: Adobe Illustrator 24.1.2, SVG Export Plug-In . SVG Version: 6.00 Build 0)  -->
<svg version="1.1" id="Layer_1" xmlns="http://www.w3.org/2000/svg" xmlns:xlink="http://www.w3.org/1999/xlink" x="0px" y="0px"
	 viewBox="0 0 517.13 326.39" style="enable-background:new 0 0 517.13 326.39;" xml:space="preserve">
<style type="text/css">
	.st0{fill:#EBF3FF;}
</style>
<g>
	<g>
		<g>
			<g>
				<g>
					<path class="st0" d="M88.59,269.67c0,12.2-8.47,21.69-25.08,21.69H51.81v18.05H38.43v-61.94h25.17
						C79.18,247.47,88.59,257.39,88.59,269.67z M75.12,269.67c0-5.25-3.81-10.59-11.02-10.59H51.81v20.68h13.64
						C72.15,279.76,75.12,274.76,75.12,269.67z"/>
				</g>
				<g>
					<path class="st0" d="M98.08,309.41v-61.94h13.39v61.94H98.08z"/>
				</g>
				<g>
					<path class="st0" d="M139.33,272.72h29.57v11.61h-29.57v25.08h-13.47v-61.94h46.94v11.61h-33.47V272.72z"/>
				</g>
				<g>
					<path class="st0" d="M199.57,272.72h29.57v11.61h-29.57v25.08h-13.47v-61.94h46.94v11.61h-33.47V272.72z"/>
				</g>
			</g>
			<g>
				<path class="st0" d="M246.25,309.41v-61.94h12.84c9.26,0,15.99,0.74,20.17,2.23c6.01,2.11,10.7,5.76,14.09,10.95
					c3.38,5.19,5.07,11.38,5.07,18.57c0,6.2-1.34,11.66-4.02,16.38c-2.68,4.72-6.16,8.2-10.44,10.44c-4.28,2.25-10.28,3.37-18,3.37
					H246.25z M252.19,303.56h7.16c8.56,0,14.5-0.53,17.81-1.6c4.66-1.51,8.32-4.24,10.99-8.18c2.67-3.94,4-8.76,4-14.45
					c0-5.97-1.45-11.08-4.34-15.31c-2.89-4.24-6.92-7.14-12.09-8.71c-3.87-1.18-10.26-1.77-19.16-1.77h-4.38V303.56z"/>
				<path class="st0" d="M310.47,247.47h35.5v6.06h-29.31v19.41h29.06v6.06h-29.06v24.34h29.06v6.06h-35.25V247.47z"/>
				<path class="st0" d="M384.39,247.47l28.89,61.94h-6.69l-9.74-20.38h-26.69l-9.65,20.38h-6.91l29.27-61.94H384.39z
					 M383.61,260.63l-10.61,22.42h21.18L383.61,260.63z"/>
				<path class="st0" d="M421.67,247.47h6.19v55.96h23.83v5.98h-30.02V247.47z"/>
				<path class="st0" d="M458.13,297.88l5.26-3.16c3.71,6.82,7.99,10.23,12.84,10.23c2.08,0,4.03-0.48,5.85-1.45
					c1.82-0.97,3.21-2.27,4.17-3.9c0.95-1.63,1.43-3.35,1.43-5.18c0-2.08-0.7-4.11-2.11-6.11c-1.94-2.75-5.47-6.06-10.61-9.94
					c-5.17-3.9-8.38-6.72-9.64-8.46c-2.19-2.92-3.28-6.08-3.28-9.47c0-2.69,0.65-5.15,1.94-7.37c1.29-2.22,3.11-3.96,5.45-5.24
					c2.34-1.28,4.89-1.92,7.64-1.92c2.92,0,5.65,0.72,8.19,2.17c2.54,1.45,5.23,4.11,8.06,7.98l-5.05,3.83
					c-2.33-3.09-4.32-5.12-5.96-6.11c-1.64-0.98-3.43-1.47-5.37-1.47c-2.5,0-4.54,0.76-6.13,2.27c-1.59,1.52-2.38,3.38-2.38,5.6
					c0,1.35,0.28,2.65,0.84,3.92c0.56,1.26,1.59,2.64,3.07,4.13c0.81,0.79,3.48,2.85,8,6.19c5.36,3.96,9.04,7.48,11.03,10.57
					c1.99,3.09,2.99,6.19,2.99,9.31c0,4.49-1.71,8.39-5.12,11.71c-3.41,3.31-7.56,4.97-12.44,4.97c-3.76,0-7.17-1-10.23-3.01
					C463.53,305.95,460.71,302.59,458.13,297.88z"/>
			</g>
		</g>
	</g>
	<rect x="23.74" y="279.76" class="st0" width="28.07" height="11.61"/>
	<rect x="23.74" y="247.47" class="st0" width="28.07" height="11.61"/>
</g>
<g>
	<path class="st0" d="M330.38,85.59L308.49,63.7l-24.88-24.88l-22.36-22.36c-2.72-2.72-7.13-2.72-9.84,0l-11.73,11.73
		c-2.72,2.72-2.72,7.13,0,9.84l17.44,17.44c2.72,2.72,2.72,7.13,0,9.84L228.53,93.9c-2.72,2.72-7.13,2.72-9.84,0l-17.44-17.44
		c-2.72-2.72-7.13-2.72-9.84,0l-11.73,11.73c-2.72,2.72-2.72,7.13,0,9.84l17.44,17.44c2.72,2.72,2.72,7.13,0,9.84l-23.7,23.7
		c-2.72,2.72-2.72,7.13,0,9.84l15.04,15.04c2.72,2.72,7.13,2.72,9.84,0l23.7-23.7c2.72-2.72,7.13-2.72,9.84,0l16.81,16.81
		c30.87,30.87,64.25,28.98,86.93,6.3C358.41,150.48,359.35,114.57,330.38,85.59z M273.84,149.06l-20.43-20.43
		c-2.72-2.72-2.72-7.13,0-9.84l28.58-28.58c2.72-2.72,7.13-2.72,9.84,0l17.91,17.91c13.39,13.39,10.55,30.39,0.79,40.16
		C301.09,157.72,286.28,161.5,273.84,149.06z"/>
</g>
<g>
</g>
<g>
</g>
<g>
</g>
<g>
</g>
<g>
</g>
<g>
</g>
<g>
</g>
<g>
</g>
<g>
</g>
<g>
</g>
<g>
</g>
<g>
</g>
<g>
</g>
<g>
</g>
<g>
</g>
</svg>
