<?xml version="1.0" encoding="utf-8"?>
<!-- Generator: Adobe Illustrator 24.1.2, SVG Export Plug-In . SVG Version: 6.00 Build 0)  -->
<svg version="1.1" id="Layer_1" xmlns="http://www.w3.org/2000/svg" xmlns:xlink="http://www.w3.org/1999/xlink" x="0px" y="0px"
	 viewBox="0 0 309.13 288.39" style="enable-background:new 0 0 309.13 288.39;" xml:space="preserve">
<style type="text/css">
	.st0{fill:#0068FF;}
</style>
<g>
	<path class="st0" d="M263.88,118.01l-34.87-34.87l-39.63-39.63L153.76,7.89c-4.33-4.33-11.35-4.33-15.68,0L119.4,26.58
		c-4.33,4.33-4.33,11.35,0,15.68l27.78,27.78c4.33,4.33,4.33,11.35,0,15.68l-45.52,45.52c-4.33,4.33-11.35,4.33-15.68,0L58.2,103.46
		c-4.33-4.33-11.35-4.33-15.68,0l-18.68,18.68c-4.33,4.33-4.33,11.35,0,15.68l27.78,27.78c4.33,4.33,4.33,11.35,0,15.68
		l-37.75,37.75c-4.33,4.33-4.33,11.35,0,15.68l23.95,23.95c4.33,4.33,11.35,4.33,15.68,0l37.75-37.75c4.33-4.33,11.35-4.33,15.68,0
		l26.77,26.77c49.16,49.16,102.34,46.15,138.46,10.03C308.53,221.35,310.03,164.16,263.88,118.01z M173.83,219.09l-32.54-32.54
		c-4.33-4.33-4.33-11.35,0-15.68l45.52-45.52c4.33-4.33,11.35-4.33,15.68,0l28.53,28.53c21.32,21.32,16.81,48.41,1.25,63.96
		C217.22,232.89,193.65,238.91,173.83,219.09z"/>
</g>
<g>
</g>
<g>
</g>
<g>
</g>
<g>
</g>
<g>
</g>
<g>
</g>
<g>
</g>
<g>
</g>
<g>
</g>
<g>
</g>
<g>
</g>
<g>
</g>
<g>
</g>
<g>
</g>
<g>
</g>
</svg>
