<?xml version="1.0" encoding="utf-8"?>
<!-- Generator: Adobe Illustrator 24.1.2, SVG Export Plug-In . SVG Version: 6.00 Build 0)  -->
<svg version="1.1" id="Layer_1" xmlns="http://www.w3.org/2000/svg" xmlns:xlink="http://www.w3.org/1999/xlink" x="0px" y="0px"
	 viewBox="0 0 267.13 258.39" style="enable-background:new 0 0 267.13 258.39;" xml:space="preserve">
<style type="text/css">
	.st0{fill:#EBF3FF;}
</style>
<g>
	<path class="st0" d="M232.66,106.52l-30.95-30.95l-35.18-35.18L134.91,8.77c-3.84-3.84-10.08-3.84-13.92,0l-16.58,16.58
		c-3.84,3.84-3.84,10.08,0,13.92l24.66,24.66c3.84,3.84,3.84,10.08,0,13.92l-40.41,40.41c-3.84,3.84-10.08,3.84-13.92,0L50.08,93.6
		c-3.84-3.84-10.08-3.84-13.92,0l-16.58,16.58c-3.84,3.84-3.84,10.08,0,13.92l24.66,24.66c3.84,3.84,3.84,10.08,0,13.92
		l-33.51,33.51c-3.84,3.84-3.84,10.08,0,13.92l21.26,21.26c3.84,3.84,10.08,3.84,13.92,0l33.51-33.51c3.84-3.84,10.08-3.84,13.92,0
		l23.77,23.77c43.64,43.64,90.84,40.97,122.9,8.91C272.29,198.25,273.63,147.48,232.66,106.52z M152.73,196.25l-28.89-28.89
		c-3.84-3.84-3.84-10.08,0-13.92l40.41-40.41c3.84-3.84,10.08-3.84,13.92,0l25.33,25.33c18.92,18.92,14.92,42.97,1.11,56.78
		C191.25,208.49,170.32,213.83,152.73,196.25z"/>
</g>
<g>
</g>
<g>
</g>
<g>
</g>
<g>
</g>
<g>
</g>
<g>
</g>
<g>
</g>
<g>
</g>
<g>
</g>
<g>
</g>
<g>
</g>
<g>
</g>
<g>
</g>
<g>
</g>
<g>
</g>
</svg>
